<svg width="48" height="48" viewBox="0 0 48 48" fill="none" xmlns="http://www.w3.org/2000/svg">
<g filter="url(#filter0_bii_119_965)">
<rect width="48" height="48" rx="24" fill="#E85078"/>
</g>
<g clip-path="url(#clip0_119_965)">
<path d="M17.4711 30.0552C17.8001 29.9161 18.1326 30.2452 17.9969 30.5756L16.1341 35.1111C15.9681 35.5153 16.478 35.8549 16.787 35.5459L20.2399 32.093C20.4919 31.841 20.9227 32.0195 20.9227 32.3758V37.5766C20.9227 38.0149 21.5259 38.1341 21.6927 37.7288L23.6774 32.9049C23.8127 32.576 24.2777 32.574 24.4159 32.9016L26.3075 37.3875C26.477 37.7895 27.0761 37.6684 27.0761 37.2321V32.381C27.0761 32.0239 27.5084 31.8457 27.76 32.0992L31.3993 35.7659C31.7086 36.0775 32.2214 35.7354 32.0524 35.3301L30.0449 30.5177C29.9082 30.1898 30.2349 29.8596 30.5642 29.9929L35.1122 31.8338C35.517 31.9977 35.854 31.4867 35.544 31.1791L32.0987 27.7608C31.8452 27.5092 32.0234 27.0768 32.3805 27.0768H37.5759C38.0141 27.0768 38.1334 26.4736 37.7281 26.3069L32.9041 24.3222C32.5753 24.1869 32.5732 23.7219 32.9009 23.5837L37.3868 21.692C37.7888 21.5225 37.6677 20.9235 37.2314 20.9235H32.3751C32.0187 20.9235 31.8403 20.4926 32.0923 20.2406L35.7663 16.5666C36.0769 16.2559 35.7323 15.7442 35.3277 15.9153L30.5213 17.9478C30.1932 18.0865 29.861 17.7595 29.9947 17.4293L31.8331 12.8874C31.9969 12.4825 31.486 12.1455 31.1783 12.4556L27.76 15.9008C27.5085 16.1543 27.0761 15.9762 27.0761 15.6191V10.4237C27.0761 9.98543 26.4729 9.8662 26.3062 10.2715L24.3226 15.0927C24.1871 15.422 23.7214 15.4235 23.5837 15.0952L21.6916 10.5812C21.5228 10.1784 20.9227 10.2991 20.9227 10.7358V15.6245C20.9227 15.9808 20.4919 16.1593 20.2399 15.9073L16.5659 12.2333C16.2552 11.9226 15.7435 12.2673 15.9146 12.6719L17.9443 17.4719C18.0834 17.8009 17.7543 18.1334 17.4239 17.9977L12.8885 16.1349C12.4842 15.9688 12.1446 16.4787 12.4537 16.7877L15.9066 20.2406C16.1586 20.4926 15.9801 20.9235 15.6237 20.9235H10.4229C9.9847 20.9235 9.86547 21.5267 10.2707 21.6934L15.092 23.677C15.4212 23.8125 15.4228 24.2782 15.0944 24.4158L10.5805 26.3079C10.1777 26.4767 10.2983 27.0768 10.7351 27.0768H15.6237C15.9801 27.0768 16.1586 27.5077 15.9066 27.7597L12.2325 31.4337C11.9219 31.7443 12.2665 32.2561 12.6712 32.0849L17.4711 30.0552Z" fill="#FFCC55"/>
</g>
<defs>
<filter id="filter0_bii_119_965" x="-16" y="-16" width="80" height="80" filterUnits="userSpaceOnUse" color-interpolation-filters="sRGB">
<feFlood flood-opacity="0" result="BackgroundImageFix"/>
<feGaussianBlur in="BackgroundImage" stdDeviation="8"/>
<feComposite in2="SourceAlpha" operator="in" result="effect1_backgroundBlur_119_965"/>
<feBlend mode="normal" in="SourceGraphic" in2="effect1_backgroundBlur_119_965" result="shape"/>
<feColorMatrix in="SourceAlpha" type="matrix" values="0 0 0 0 0 0 0 0 0 0 0 0 0 0 0 0 0 0 127 0" result="hardAlpha"/>
<feOffset dy="-8"/>
<feGaussianBlur stdDeviation="5"/>
<feComposite in2="hardAlpha" operator="arithmetic" k2="-1" k3="1"/>
<feColorMatrix type="matrix" values="0 0 0 0 0.554492 0 0 0 0 0.420374 0 0 0 0 0.107433 0 0 0 0.32 0"/>
<feBlend mode="normal" in2="shape" result="effect2_innerShadow_119_965"/>
<feColorMatrix in="SourceAlpha" type="matrix" values="0 0 0 0 0 0 0 0 0 0 0 0 0 0 0 0 0 0 127 0" result="hardAlpha"/>
<feOffset dy="4"/>
<feGaussianBlur stdDeviation="2"/>
<feComposite in2="hardAlpha" operator="arithmetic" k2="-1" k3="1"/>
<feColorMatrix type="matrix" values="0 0 0 0 1 0 0 0 0 1 0 0 0 0 1 0 0 0 0.25 0"/>
<feBlend mode="normal" in2="effect2_innerShadow_119_965" result="effect3_innerShadow_119_965"/>
</filter>
<clipPath id="clip0_119_965">
<rect width="28.8" height="28.8" fill="white" transform="translate(9.59961 9.6001)"/>
</clipPath>
</defs>
</svg>
