<svg width="48" height="48" viewBox="0 0 48 48" fill="none" xmlns="http://www.w3.org/2000/svg">
<g filter="url(#filter0_bii_119_982)">
<rect width="48" height="48" rx="24" fill="#9062C3"/>
</g>
<path d="M25 35V28.8C25 27.9 26.0667 27.4667 26.7 28.1L31.0667 32.4667C31.4667 32.8667 32.1 32.8667 32.4667 32.4667C32.8667 32.0667 32.8667 31.4333 32.4667 31.0667L28.1 26.7C27.4667 26.0667 27.9333 25 28.8 25H35C35.5667 25 36 24.5667 36 24C36 23.4333 35.5667 23 35 23H28.8C27.9 23 27.4667 21.9333 28.1 21.3L32.4667 16.9333C32.8667 16.5333 32.8667 15.9 32.4667 15.5333C32.0667 15.1333 31.4333 15.1333 31.0667 15.5333L26.7 19.9C26.0667 20.5333 25 20.0667 25 19.2V13C25 12.4333 24.5667 12 24 12C23.4333 12 23 12.4333 23 13V19.2C23 20.1 21.9333 20.5333 21.3 19.9L16.9333 15.5C16.5333 15.1 15.9 15.1 15.5333 15.5C15.1333 15.9 15.1333 16.5333 15.5333 16.9L19.9 21.2667C20.5333 21.9 20.0667 22.9667 19.2 22.9667H13C12.4333 22.9667 12 23.4 12 23.9667C12 24.5333 12.4333 24.9667 13 24.9667H19.2C20.1 24.9667 20.5333 26.0333 19.9 26.6667L15.5 31.0667C15.1 31.4667 15.1 32.1 15.5 32.4667C15.9 32.8667 16.5333 32.8667 16.9 32.4667L21.2667 28.1C21.9 27.4667 22.9667 27.9333 22.9667 28.8V35C22.9667 35.5667 23.4 36 23.9667 36C24.5667 36 25 35.5667 25 35Z" fill="#EBDAFF"/>
<defs>
<filter id="filter0_bii_119_982" x="-16" y="-16" width="80" height="80" filterUnits="userSpaceOnUse" color-interpolation-filters="sRGB">
<feFlood flood-opacity="0" result="BackgroundImageFix"/>
<feGaussianBlur in="BackgroundImage" stdDeviation="8"/>
<feComposite in2="SourceAlpha" operator="in" result="effect1_backgroundBlur_119_982"/>
<feBlend mode="normal" in="SourceGraphic" in2="effect1_backgroundBlur_119_982" result="shape"/>
<feColorMatrix in="SourceAlpha" type="matrix" values="0 0 0 0 0 0 0 0 0 0 0 0 0 0 0 0 0 0 127 0" result="hardAlpha"/>
<feOffset dy="-8"/>
<feGaussianBlur stdDeviation="5"/>
<feComposite in2="hardAlpha" operator="arithmetic" k2="-1" k3="1"/>
<feColorMatrix type="matrix" values="0 0 0 0 0.333796 0 0 0 0 0.12353 0 0 0 0 0.566917 0 0 0 1 0"/>
<feBlend mode="normal" in2="shape" result="effect2_innerShadow_119_982"/>
<feColorMatrix in="SourceAlpha" type="matrix" values="0 0 0 0 0 0 0 0 0 0 0 0 0 0 0 0 0 0 127 0" result="hardAlpha"/>
<feOffset dy="4"/>
<feGaussianBlur stdDeviation="2"/>
<feComposite in2="hardAlpha" operator="arithmetic" k2="-1" k3="1"/>
<feColorMatrix type="matrix" values="0 0 0 0 1 0 0 0 0 1 0 0 0 0 1 0 0 0 0.25 0"/>
<feBlend mode="normal" in2="effect2_innerShadow_119_982" result="effect3_innerShadow_119_982"/>
</filter>
</defs>
</svg>
