<svg width="48" height="48" viewBox="0 0 48 48" fill="none" xmlns="http://www.w3.org/2000/svg">
<g filter="url(#filter0_bii_119_991)">
<rect width="48" height="48" rx="24" fill="#4E1DDB"/>
</g>
<g clip-path="url(#clip0_119_991)">
<path d="M9.59961 24.0001C9.59961 24.0001 9.59961 24.0401 9.59961 24.0001C17.5596 24.0001 23.9996 17.5601 23.9996 9.6001C16.0396 9.6001 9.59961 16.0401 9.59961 24.0001Z" fill="white"/>
<path d="M24 9.6001C24 17.5601 30.44 24.0001 38.4 24.0401V24.0001C38.4 16.0401 31.96 9.6001 24 9.6001Z" fill="white"/>
<path d="M24 38.4C31.96 38.4 38.4 31.96 38.4 24.04C30.48 24.04 24.04 30.48 24 38.4Z" fill="white"/>
<path d="M9.59961 24.04C9.59961 31.96 16.0396 38.4 23.9996 38.4C23.9596 30.48 17.5196 24.04 9.59961 24.04Z" fill="white"/>
</g>
<defs>
<filter id="filter0_bii_119_991" x="-16" y="-16" width="80" height="80" filterUnits="userSpaceOnUse" color-interpolation-filters="sRGB">
<feFlood flood-opacity="0" result="BackgroundImageFix"/>
<feGaussianBlur in="BackgroundImage" stdDeviation="8"/>
<feComposite in2="SourceAlpha" operator="in" result="effect1_backgroundBlur_119_991"/>
<feBlend mode="normal" in="SourceGraphic" in2="effect1_backgroundBlur_119_991" result="shape"/>
<feColorMatrix in="SourceAlpha" type="matrix" values="0 0 0 0 0 0 0 0 0 0 0 0 0 0 0 0 0 0 127 0" result="hardAlpha"/>
<feOffset dy="-8"/>
<feGaussianBlur stdDeviation="5"/>
<feComposite in2="hardAlpha" operator="arithmetic" k2="-1" k3="1"/>
<feColorMatrix type="matrix" values="0 0 0 0 0.175467 0 0 0 0 0.0380755 0 0 0 0 0.450251 0 0 0 1 0"/>
<feBlend mode="normal" in2="shape" result="effect2_innerShadow_119_991"/>
<feColorMatrix in="SourceAlpha" type="matrix" values="0 0 0 0 0 0 0 0 0 0 0 0 0 0 0 0 0 0 127 0" result="hardAlpha"/>
<feOffset dy="4"/>
<feGaussianBlur stdDeviation="2"/>
<feComposite in2="hardAlpha" operator="arithmetic" k2="-1" k3="1"/>
<feColorMatrix type="matrix" values="0 0 0 0 1 0 0 0 0 1 0 0 0 0 1 0 0 0 0.25 0"/>
<feBlend mode="normal" in2="effect2_innerShadow_119_991" result="effect3_innerShadow_119_991"/>
</filter>
<clipPath id="clip0_119_991">
<rect width="28.8" height="28.8" fill="white" transform="translate(9.59961 9.6001)"/>
</clipPath>
</defs>
</svg>
