<svg width="77" height="77" viewBox="0 0 77 77" fill="none" xmlns="http://www.w3.org/2000/svg">
<g filter="url(#filter0_b_261_1440)">
<path d="M65.8627 22.7304C60.1901 14.4304 50.8879 11.018 44.9382 9.9965C43.5157 9.75225 42.6082 8.16648 42.7721 6.73245C43.201 2.98105 40.9184 0 38.7786 0C35.7177 0 34.6468 3.54919 34.8262 6.52104C34.9163 8.01365 33.887 9.82119 32.4214 10.118C23.0102 12.0241 16.091 18.3071 13.1587 22.0636C12.788 22.5386 12.2383 22.8376 11.6462 22.9493C6.16744 23.9827 3.34625 30.3654 2.46707 34.058C2.37684 34.437 2.19003 34.7824 1.94894 35.0884C1.1314 36.126 0 38.1457 0 40.5442C0 42.9622 1.14973 44.9951 1.96867 46.025C2.1988 46.3144 2.38286 46.6451 2.47277 47.0038C4.31162 54.3396 8.31731 57.1033 11.0533 57.8256C11.9395 58.0596 12.8555 58.6253 13.445 59.3273C14.0115 60.0019 14.7844 60.8 15.5479 61.5471C16.5014 62.48 16.3534 64.0757 15.3382 64.941C10.7115 68.8847 10.2763 73.7065 14.4863 73.7065C17.8266 73.7065 22.3684 71.1769 24.956 69.4241C25.5833 68.9992 26.3884 68.9317 27.0855 69.2286C31.6458 71.1707 37.1918 71.6093 41.2308 71.4089C42.8198 71.3301 44.0548 73.0301 44.3317 74.5967C44.6342 76.3081 45.9833 76.9252 46.9132 77C51.1164 77 58.2704 69.1135 60.2939 64.4706C60.4441 64.126 60.6673 63.8198 60.9568 63.5801C63.068 61.8325 64.9713 59.4642 65.9493 58.0914C66.1847 57.7609 66.5073 57.5042 66.8732 57.3289C71.1029 55.3014 73.306 50.4086 74.0508 47.596C74.1689 47.1501 74.4163 46.7512 74.7282 46.4114C75.697 45.3556 77 43.2464 77 40.4307C77 37.6326 75.7133 35.6371 74.7464 34.6537C74.4239 34.3256 74.1536 33.9404 74.0262 33.4984C72.2504 27.3419 69.0102 24.5551 67.0489 23.6637C66.5839 23.4523 66.1508 23.152 65.8627 22.7304Z" fill="#D5C1FF" fill-opacity="0.48"/>
<path d="M44.769 10.9821C50.5767 11.9793 59.5764 15.3047 65.037 23.2946C65.4625 23.9172 66.0694 24.3169 66.6351 24.574C68.289 25.3258 71.3571 27.8533 73.0653 33.7755L74.0262 33.4984L73.0653 33.7755C73.2537 34.4286 73.6386 34.9534 74.0333 35.3548C74.8575 36.193 76 37.9483 76 40.4307C76 42.9356 74.8368 44.814 73.9914 45.7352C73.5972 46.1647 73.2529 46.7027 73.0841 47.3401C72.7341 48.6619 72.0352 50.4893 70.9271 52.217C69.8176 53.9468 68.3356 55.5189 66.4409 56.4271C65.9403 56.6671 65.4793 57.0277 65.1349 57.5111C64.1823 58.8483 62.3368 61.1396 60.3192 62.8098C59.9008 63.1561 59.5857 63.5926 59.3772 64.071C58.4322 66.2393 56.2278 69.2698 53.7159 71.7672C52.4669 73.0089 51.1732 74.0872 49.9609 74.8482C48.7461 75.6108 47.7202 75.9866 46.9543 75.9996C46.3354 75.9363 45.5126 75.5324 45.3164 74.4227C45.1476 73.4675 44.6926 72.4788 44.0214 71.7221C43.3497 70.9649 42.3721 70.351 41.1813 70.4101C37.2271 70.6063 31.848 70.1699 27.4774 68.3086C26.4775 67.8828 25.3126 67.9748 24.3952 68.5962C23.1355 69.4495 21.4029 70.4894 19.5902 71.312C17.7548 72.1448 15.941 72.7065 14.4863 72.7065C13.6181 72.7065 13.1586 72.461 12.9241 72.2095C12.691 71.9596 12.5326 71.5455 12.594 70.8969C12.721 69.5565 13.78 67.5832 15.9869 65.7021C17.3926 64.504 17.6727 62.227 16.2473 60.8324C15.4919 60.0932 14.7461 59.3216 14.2108 58.6842C13.4828 57.8172 12.3853 57.1431 11.3086 56.8588C8.97135 56.2417 5.20535 53.7922 3.44276 46.7606C3.31031 46.2323 3.04764 45.7752 2.75139 45.4026C2.01845 44.4808 1 42.6616 1 40.5442C1 38.4442 2.0018 36.6371 2.73442 35.7073C3.04489 35.3133 3.30916 34.8387 3.43987 34.2897C3.85824 32.5325 4.74157 30.1344 6.15639 28.0722C7.57315 26.0072 9.44808 24.3815 11.8316 23.932C12.6254 23.7823 13.4048 23.3735 13.947 22.6789C16.7834 19.0452 23.5125 12.9427 32.6199 11.0981C33.6976 10.8799 34.5253 10.1318 35.0512 9.30425C35.5793 8.47317 35.8836 7.44199 35.8244 6.46079C35.7418 5.09257 35.9547 3.6499 36.4822 2.59245C36.9916 1.57122 37.7289 1 38.7786 1C39.3859 1 40.2197 1.45127 40.8987 2.50215C41.556 3.51948 41.9671 4.97019 41.7786 6.61887C41.6694 7.574 41.9153 8.55649 42.4156 9.34595C42.918 10.1387 43.7233 10.8025 44.769 10.9821Z" stroke="#D5C1FF" stroke-opacity="0.48" stroke-width="2" stroke-linecap="round"/>
</g>
<defs>
<filter id="filter0_b_261_1440" x="-8" y="-8" width="93" height="93" filterUnits="userSpaceOnUse" color-interpolation-filters="sRGB">
<feFlood flood-opacity="0" result="BackgroundImageFix"/>
<feGaussianBlur in="BackgroundImage" stdDeviation="4"/>
<feComposite in2="SourceAlpha" operator="in" result="effect1_backgroundBlur_261_1440"/>
<feBlend mode="normal" in="SourceGraphic" in2="effect1_backgroundBlur_261_1440" result="shape"/>
</filter>
</defs>
</svg>
