<svg width="121" height="126" viewBox="0 0 121 126" fill="none" xmlns="http://www.w3.org/2000/svg">
<g filter="url(#filter0_bd_126_895)">
<path d="M36.0661 21.2L30.3755 20.3293C29.2175 20.1521 28.1559 21.0037 28.0775 22.1725L27.6326 28.8103C27.6241 28.9365 27.6037 29.0616 27.5716 29.1839L24.2639 41.7939C24.0985 42.4245 24.2508 43.0962 24.6721 43.5938L32.9892 53.4161C33.4058 53.9082 33.5597 54.5709 33.4025 55.1961L32.5066 58.7599C32.4665 58.9194 32.4463 59.0831 32.4463 59.2475V66.1034C32.4463 66.5545 32.5988 66.9924 32.8791 67.3459L56.3818 96.9909C56.869 97.6054 57.6705 97.8785 58.4316 97.6893L65.7697 95.8648C66.4331 95.6999 66.9662 95.2076 67.1835 94.5595L67.6507 93.1655C67.8903 92.4506 68.5116 91.9312 69.2576 91.8221L87.2771 89.1867C88.0544 89.073 88.6931 88.5149 88.91 87.76L89.4317 85.9438C89.6342 85.239 90.2063 84.7014 90.9224 84.5432L93.9178 83.8812C94.6912 83.7103 95.2908 83.0991 95.447 82.3226L96.8189 75.5004C96.9339 74.9288 96.7937 74.3356 96.4351 73.8759L70.4518 40.5698C70.0728 40.084 69.491 39.8 68.8749 39.8H64.0807C63.5283 39.8 63.0004 39.5715 62.6224 39.1686L46.8679 22.3814C46.5176 22.0081 46.0374 21.7833 45.5264 21.7534L36.0661 21.2Z" fill="#D5C1FF" fill-opacity="0.48" shape-rendering="crispEdges"/>
<path d="M35.9149 22.1885L35.9611 22.1956L36.0077 22.1983L45.468 22.7517C45.7235 22.7667 45.9636 22.8791 46.1387 23.0657L61.8932 39.853C62.4603 40.4572 63.252 40.8 64.0807 40.8H68.8749C69.183 40.8 69.4738 40.942 69.6633 41.1849L95.6466 74.491L96.4351 73.8759L95.6466 74.491C95.8259 74.7208 95.896 75.0174 95.8386 75.3032L94.4666 82.1255C94.3885 82.5137 94.0887 82.8193 93.702 82.9047L90.7066 83.5667C89.6324 83.8041 88.7743 84.6104 88.4706 85.6677L87.9488 87.4839C87.8404 87.8614 87.521 88.1404 87.1324 88.1972L69.1129 90.8326C67.9938 90.9963 67.0619 91.7754 66.7025 92.8477L66.2353 94.2417C66.1267 94.5657 65.8601 94.8119 65.5284 94.8943L58.1903 96.7188C57.8097 96.8134 57.409 96.6769 57.1654 96.3696L33.6627 66.7246C33.5225 66.5479 33.4463 66.3289 33.4463 66.1034V59.2475C33.4463 59.1653 33.4564 59.0835 33.4765 59.0037L34.3723 55.4399C34.6081 54.502 34.3773 53.508 33.7523 52.7699L32.9892 53.4161L33.7523 52.7699L25.4353 42.9476C25.2246 42.6988 25.1485 42.363 25.2312 42.0476L28.5389 29.4377C28.587 29.2541 28.6176 29.0665 28.6303 28.8771L29.0753 22.2394C29.1144 21.655 29.6453 21.2292 30.2243 21.3178L35.9149 22.1885Z" stroke="#D5C1FF" stroke-opacity="0.48" stroke-width="2" stroke-linecap="round" shape-rendering="crispEdges"/>
</g>
<defs>
<filter id="filter0_bd_126_895" x="0.199219" y="0.305664" width="120.658" height="125.442" filterUnits="userSpaceOnUse" color-interpolation-filters="sRGB">
<feFlood flood-opacity="0" result="BackgroundImageFix"/>
<feGaussianBlur in="BackgroundImage" stdDeviation="4"/>
<feComposite in2="SourceAlpha" operator="in" result="effect1_backgroundBlur_126_895"/>
<feColorMatrix in="SourceAlpha" type="matrix" values="0 0 0 0 0 0 0 0 0 0 0 0 0 0 0 0 0 0 127 0" result="hardAlpha"/>
<feOffset dy="4"/>
<feGaussianBlur stdDeviation="12"/>
<feComposite in2="hardAlpha" operator="out"/>
<feColorMatrix type="matrix" values="0 0 0 0 0.835294 0 0 0 0 0.756863 0 0 0 0 1 0 0 0 0.4 0"/>
<feBlend mode="normal" in2="effect1_backgroundBlur_126_895" result="effect2_dropShadow_126_895"/>
<feBlend mode="normal" in="SourceGraphic" in2="effect2_dropShadow_126_895" result="shape"/>
</filter>
</defs>
</svg>
