<svg width="118" height="131" viewBox="0 0 118 131" fill="none" xmlns="http://www.w3.org/2000/svg">
<g filter="url(#filter0_bd_126_878)">
<path d="M80.9643 45.01C76.7497 25.0617 65.0695 20 59.6034 20C49.1011 20 43.1697 37.4513 41.1966 47.594C41.0096 48.5549 40.1595 49.226 39.2262 49.5212C37.2952 50.1321 35.7891 51.6958 34.8941 52.9841C34.4636 53.6037 33.7818 54.027 33.035 54.1345C29.6355 54.6237 24 56.9169 24 60.6043C24 63.6125 29.2091 65.8796 32.5982 66.8842C33.2533 67.0784 33.7712 67.5749 34.1057 68.1707C35.2641 70.2342 37.6741 72.1134 39.3711 73.1921C39.9373 73.5519 40.3229 74.1405 40.3949 74.8075C41.4779 84.845 46.8381 103 60.8103 103C74.7359 103 80.8507 80.5497 82.3735 68.0288C82.479 67.1616 83.1159 66.4598 83.9611 66.2389C87.9874 65.1869 94 62.7995 94 59.4101C94 56.1952 90.8683 54.1636 88.5567 53.244C87.8405 52.9591 87.2896 52.3516 87.0701 51.6128C86.2433 48.8297 84.6197 47.5681 83.1927 47.0908C82.1855 46.7539 81.1839 46.0491 80.9643 45.01Z" fill="#D5C1FF" fill-opacity="0.48" shape-rendering="crispEdges"/>
<path d="M59.6034 21C64.5024 21 75.8481 25.6316 79.9859 45.2167C80.3155 46.7767 81.7441 47.6607 82.8755 48.0391C83.982 48.4092 85.3741 49.4153 86.1115 51.8976C86.4174 52.9271 87.1833 53.7739 88.1871 54.1732C89.2668 54.6027 90.5038 55.2806 91.4542 56.1891C92.3974 57.0909 93 58.158 93 59.4101C93 59.9426 92.7675 60.5028 92.2447 61.1009C91.7177 61.7038 90.9429 62.2881 89.9925 62.8338C88.0929 63.9244 85.6772 64.7569 83.7083 65.2714C82.4829 65.5916 81.5379 66.6166 81.3808 67.9081C80.6272 74.1048 78.7379 82.7305 75.3421 89.7755C71.916 96.8836 67.1565 102 60.8103 102C54.3421 102 49.7796 97.8215 46.6431 92.1818C43.5068 86.5424 41.9217 79.636 41.3891 74.7002C41.2825 73.7121 40.7141 72.8608 39.9075 72.3481L39.3711 73.1921L39.9075 72.3481C38.2418 71.2894 36.0098 69.5197 34.9777 67.6812C34.5517 66.9224 33.8495 66.2121 32.8824 65.9254C31.2339 65.4368 29.1767 64.6495 27.5545 63.6453C26.7432 63.1431 26.0834 62.6125 25.6359 62.0741C25.1913 61.5392 25 61.0521 25 60.6043C25 59.3103 26.0027 58.0756 27.7555 57.0286C29.4604 56.0102 31.5896 55.3528 33.1774 55.1243C34.2006 54.977 35.1276 54.4007 35.7153 53.5546C36.5519 52.3505 37.898 50.9902 39.5278 50.4747C40.6536 50.1186 41.8947 49.2421 42.1782 47.7849C43.1535 42.7712 45.1039 35.9794 48.0813 30.4688C51.0992 24.8833 54.9534 21 59.6034 21Z" stroke="#D5C1FF" stroke-opacity="0.48" stroke-width="2" stroke-linecap="round" shape-rendering="crispEdges"/>
</g>
<defs>
<filter id="filter0_bd_126_878" x="0" y="0" width="118" height="131" filterUnits="userSpaceOnUse" color-interpolation-filters="sRGB">
<feFlood flood-opacity="0" result="BackgroundImageFix"/>
<feGaussianBlur in="BackgroundImage" stdDeviation="4"/>
<feComposite in2="SourceAlpha" operator="in" result="effect1_backgroundBlur_126_878"/>
<feColorMatrix in="SourceAlpha" type="matrix" values="0 0 0 0 0 0 0 0 0 0 0 0 0 0 0 0 0 0 127 0" result="hardAlpha"/>
<feOffset dy="4"/>
<feGaussianBlur stdDeviation="12"/>
<feComposite in2="hardAlpha" operator="out"/>
<feColorMatrix type="matrix" values="0 0 0 0 0.835294 0 0 0 0 0.756863 0 0 0 0 1 0 0 0 0.4 0"/>
<feBlend mode="normal" in2="effect1_backgroundBlur_126_878" result="effect2_dropShadow_126_878"/>
<feBlend mode="normal" in="SourceGraphic" in2="effect2_dropShadow_126_878" result="shape"/>
</filter>
</defs>
</svg>
