<svg width="70" height="83" viewBox="0 0 70 83" fill="none" xmlns="http://www.w3.org/2000/svg">
<g filter="url(#filter0_b_261_1464)">
<path d="M56.9643 25.01C52.7497 5.06172 41.0695 0 35.6034 0C25.1011 0 19.1697 17.4513 17.1966 27.594C17.0096 28.5549 16.1595 29.226 15.2262 29.5212C13.2952 30.1321 11.7891 31.6958 10.8941 32.9841C10.4636 33.6037 9.78176 34.027 9.03496 34.1345C5.63551 34.6237 0 36.9169 0 40.6043C0 43.6125 5.20911 45.8796 8.59819 46.8842C9.25331 47.0784 9.7712 47.5749 10.1057 48.1707C11.2641 50.2342 13.6741 52.1134 15.3711 53.1921C15.9373 53.5519 16.3229 54.1405 16.3949 54.8075C17.4779 64.845 22.8381 83 36.8103 83C50.7359 83 56.8507 60.5497 58.3735 48.0288C58.479 47.1616 59.1159 46.4598 59.9611 46.2389C63.9874 45.1869 70 42.7995 70 39.4101C70 36.1952 66.8683 34.1636 64.5567 33.244C63.8405 32.9591 63.2896 32.3516 63.0701 31.6128C62.2433 28.8297 60.6197 27.5681 59.1927 27.0908C58.1855 26.7539 57.1839 26.0491 56.9643 25.01Z" fill="#D5C1FF" fill-opacity="0.48"/>
<path d="M35.6034 1C40.5024 1 51.8481 5.63163 55.9859 25.2167C56.3155 26.7767 57.7441 27.6607 58.8755 28.0391C59.982 28.4092 61.3741 29.4153 62.1115 31.8976C62.4174 32.9271 63.1833 33.7739 64.1871 34.1732C65.2668 34.6027 66.5038 35.2806 67.4542 36.1891C68.3974 37.0909 69 38.158 69 39.4101C69 39.9426 68.7675 40.5028 68.2447 41.1009C67.7177 41.7038 66.9429 42.2881 65.9925 42.8338C64.0929 43.9244 61.6772 44.7569 59.7083 45.2714C58.4829 45.5916 57.5379 46.6166 57.3808 47.9081C56.6272 54.1048 54.7379 62.7305 51.3421 69.7755C47.916 76.8836 43.1565 82 36.8103 82C30.3421 82 25.7796 77.8215 22.6431 72.1818C19.5068 66.5424 17.9217 59.636 17.3891 54.7002C17.2825 53.7121 16.7141 52.8608 15.9075 52.3481L15.3711 53.1921L15.9075 52.3481C14.2418 51.2894 12.0098 49.5197 10.9777 47.6812C10.5517 46.9224 9.84948 46.2121 8.88238 45.9254C7.23386 45.4368 5.17665 44.6495 3.55453 43.6453C2.74315 43.1431 2.08342 42.6125 1.63592 42.0741C1.1913 41.5392 1 41.0521 1 40.6043C1 39.3103 2.0027 38.0756 3.7555 37.0286C5.46038 36.0102 7.58963 35.3528 9.1774 35.1243C10.2006 34.977 11.1276 34.4007 11.7153 33.5546C12.5519 32.3505 13.898 30.9902 15.5278 30.4747C16.6536 30.1186 17.8947 29.2421 18.1782 27.7849C19.1535 22.7712 21.1039 15.9794 24.0813 10.4688C27.0992 4.88334 30.9534 1 35.6034 1Z" stroke="#D5C1FF" stroke-opacity="0.48" stroke-width="2" stroke-linecap="round"/>
</g>
<defs>
<filter id="filter0_b_261_1464" x="-8" y="-8" width="86" height="99" filterUnits="userSpaceOnUse" color-interpolation-filters="sRGB">
<feFlood flood-opacity="0" result="BackgroundImageFix"/>
<feGaussianBlur in="BackgroundImage" stdDeviation="4"/>
<feComposite in2="SourceAlpha" operator="in" result="effect1_backgroundBlur_261_1464"/>
<feBlend mode="normal" in="SourceGraphic" in2="effect1_backgroundBlur_261_1464" result="shape"/>
</filter>
</defs>
</svg>
