<svg width="161" height="118" viewBox="0 0 161 118" fill="none" xmlns="http://www.w3.org/2000/svg">
<mask id="mask0_126_873" style="mask-type:alpha" maskUnits="userSpaceOnUse" x="0" y="0" width="161" height="118">
<path d="M1.1723 5.52315C1.33002 3.6874 2.40252 2.35552 4.22723 2.10005C22.3028 -0.430629 122.228 -0.994415 155.136 2.2028C158.075 2.48831 160.235 4.51552 160.434 7.46138C161.886 28.9796 160.604 112.545 155.883 114.61C147.267 118.379 10.5037 120.353 4.82108 113.174C-1.50283 105.185 -0.293465 22.5835 1.1723 5.52315Z" fill="url(#paint0_linear_126_873)" fill-opacity="0.96"/>
</mask>
<g mask="url(#mask0_126_873)">
<path d="M4.36589 3.09039C13.32 1.83677 42.7405 1.06114 74.1215 1.00346C105.48 0.945826 138.641 1.60493 155.04 3.19811C157.538 3.44085 159.273 5.11625 159.436 7.52873C160.159 18.2361 160.203 44.4659 159.474 68.2999C159.11 80.2121 158.553 91.5011 157.794 99.9331C157.414 104.153 156.986 107.632 156.511 110.107C156.273 111.349 156.03 112.302 155.789 112.958C155.668 113.287 155.56 113.507 155.474 113.642C155.45 113.679 155.431 113.704 155.418 113.72C154.989 113.89 154.095 114.094 152.682 114.305C151.233 114.52 149.342 114.729 147.064 114.929C142.51 115.327 136.455 115.685 129.401 115.986C115.295 116.588 97.2283 116.964 79.2501 116.998C61.2699 117.031 43.3939 116.723 29.6658 115.959C22.7984 115.577 16.9908 115.081 12.7341 114.462C10.6029 114.152 8.889 113.815 7.63612 113.454C7.00917 113.273 6.52249 113.094 6.16671 112.921C5.79369 112.74 5.64555 112.605 5.60516 112.554C5.32205 112.196 5.00026 111.542 4.67354 110.529C4.35319 109.536 4.05188 108.276 3.77162 106.772C3.21129 103.763 2.74886 99.8527 2.37356 95.3004C1.62331 86.2001 1.22782 74.6192 1.07548 62.7377C0.770678 38.9659 1.44001 14.0893 2.16863 5.60875C2.23286 4.86115 2.47692 4.28106 2.82982 3.87451C3.17586 3.47586 3.67467 3.18716 4.36589 3.09039Z" fill="url(#paint1_radial_126_873)" fill-opacity="0.96" stroke="#9062C3" stroke-width="2"/>
</g>
<defs>
<linearGradient id="paint0_linear_126_873" x1="80.4447" y1="114.388" x2="80.4447" y2="-2.23285e-09" gradientUnits="userSpaceOnUse">
<stop stop-color="#9062C3" stop-opacity="0"/>
<stop offset="1" stop-color="#9062C3"/>
</linearGradient>
<radialGradient id="paint1_radial_126_873" cx="0" cy="0" r="1" gradientUnits="userSpaceOnUse" gradientTransform="translate(80.4447 161.949) rotate(-90) scale(161.949 402.259)">
<stop stop-color="#9062C3" stop-opacity="0"/>
<stop offset="1" stop-color="#9062C3"/>
</radialGradient>
</defs>
</svg>
