<svg width="158" height="101" viewBox="0 0 158 101" fill="none" xmlns="http://www.w3.org/2000/svg">
<g filter="url(#filter0_bd_126_914)">
<path d="M114.534 20C109.72 20 106.528 21.9649 105.027 23.4303C104.558 23.8881 103.948 24.2114 103.293 24.204L52.4934 23.6242C51.9064 23.6175 51.3586 23.3463 50.9294 22.9457C49.5828 21.6891 46.9858 20 43.7722 20C37.1976 20 34.1269 23.3516 33.1883 25.4616C33.029 25.8197 32.8144 26.1518 32.5338 26.4253C30.1395 28.7587 28.1855 33.3076 27.2602 36.0074C27.0865 36.5142 26.6156 36.8636 26.0798 36.8636C25.546 36.8636 25.0712 37.2103 24.9324 37.7257C23.0062 44.8812 24.4821 52.7198 25.6247 56.2704C25.716 56.554 25.9814 56.7386 26.2794 56.7386C26.6671 56.7386 26.9786 57.0536 27.019 57.4392C27.387 60.9466 30.3648 64.8632 32.112 66.703C32.2869 66.8872 32.4276 67.0987 32.5363 67.3282C34.4147 71.2937 38.5105 73 43.1725 73C47.1904 73 50.0866 71.3102 51.5088 70.0535C51.9548 69.6594 52.5119 69.3864 53.107 69.3864H103.569C104.065 69.3864 104.54 69.5748 104.922 69.8896C110.76 74.69 117.068 72.9416 121.13 71.1932C122.964 70.4036 123.809 69.4584 124.132 68.6322C124.49 67.7184 124.73 66.5663 125.399 65.8484C127.228 63.8853 128.4 61.0496 129.034 58.8499C129.358 57.7268 130.552 57.1065 131.673 56.7769C132.045 56.6675 132.358 56.4689 132.524 56.1364C135.522 49.5114 133.124 38.6705 132.524 37.4659C132.376 37.1685 132.11 36.9782 131.789 36.8631C130.648 36.4535 129.404 35.7849 129.053 34.6243C128.021 31.2028 125.723 27.9008 124.355 26.285C124.206 26.1088 124.088 25.9134 123.99 25.7042C123.015 23.6201 120 20 114.534 20Z" fill="#D5C1FF" fill-opacity="0.48" shape-rendering="crispEdges"/>
<path d="M105.725 24.1459C107.055 22.8474 110.003 21 114.534 21C119.5 21 122.221 24.2813 123.084 26.128C123.212 26.4002 123.375 26.6744 123.592 26.9311C124.914 28.4922 127.118 31.6734 128.096 34.9132C128.354 35.7672 128.926 36.3883 129.535 36.8328C130.141 37.2754 130.836 37.5836 131.451 37.8043C131.531 37.833 131.577 37.8614 131.6 37.8799C131.62 37.8958 131.626 37.9053 131.629 37.9116L132.524 37.4659L131.629 37.9116C131.656 37.967 131.738 38.1843 131.855 38.6081C131.965 39.0067 132.091 39.5322 132.219 40.1591C132.474 41.4127 132.73 43.0482 132.876 44.8495C133.172 48.4801 133.006 52.6242 131.625 55.6975C131.62 55.7043 131.611 55.7147 131.591 55.7292C131.558 55.7531 131.496 55.7867 131.391 55.8174C130.77 56.0001 130.079 56.2764 129.48 56.6977C128.876 57.1222 128.317 57.7295 128.074 58.5727C127.456 60.7116 126.34 63.3718 124.667 65.1667C124.2 65.6681 123.917 66.2803 123.715 66.8093C123.615 67.0691 123.527 67.3323 123.447 67.5694L123.439 67.5941C123.354 67.8455 123.28 68.0657 123.201 68.2677C123.005 68.7668 122.413 69.5522 120.735 70.2747C116.757 71.9869 110.939 73.5422 105.558 69.1172C105.016 68.6714 104.321 68.3864 103.569 68.3864H53.107C52.2021 68.3864 51.4191 68.7983 50.8467 69.3041C49.5743 70.4284 46.9059 72 43.1725 72C38.7271 72 35.091 70.3853 33.4401 66.9002C33.2901 66.5836 33.0914 66.2822 32.8371 66.0144C32.0045 65.1377 30.8682 63.7536 29.9011 62.1742C28.9251 60.5804 28.175 58.8738 28.0136 57.3349C27.9335 56.5721 27.3491 55.8646 26.5102 55.7537C25.4108 52.2106 24.0776 44.7481 25.8981 37.9857C25.9134 37.9286 25.9752 37.8636 26.0798 37.8636C27.0597 37.8636 27.8995 37.2265 28.2062 36.3316C28.6566 35.0174 29.3587 33.2504 30.2364 31.5344C31.1217 29.8036 32.1499 28.1958 33.2317 27.1414C33.6196 26.7634 33.9012 26.3193 34.102 25.8681C34.8781 24.1233 37.5879 21 43.7722 21C46.6434 21 49.0082 22.5206 50.2471 23.6768C50.8129 24.2049 51.5895 24.6139 52.482 24.6241L103.282 25.2039C104.278 25.2153 105.129 24.7275 105.725 24.1459Z" stroke="#D5C1FF" stroke-opacity="0.48" stroke-width="2" stroke-linecap="round" shape-rendering="crispEdges"/>
</g>
<defs>
<filter id="filter0_bd_126_914" x="0" y="0" width="158" height="101" filterUnits="userSpaceOnUse" color-interpolation-filters="sRGB">
<feFlood flood-opacity="0" result="BackgroundImageFix"/>
<feGaussianBlur in="BackgroundImage" stdDeviation="4"/>
<feComposite in2="SourceAlpha" operator="in" result="effect1_backgroundBlur_126_914"/>
<feColorMatrix in="SourceAlpha" type="matrix" values="0 0 0 0 0 0 0 0 0 0 0 0 0 0 0 0 0 0 127 0" result="hardAlpha"/>
<feOffset dy="4"/>
<feGaussianBlur stdDeviation="12"/>
<feComposite in2="hardAlpha" operator="out"/>
<feColorMatrix type="matrix" values="0 0 0 0 0.835294 0 0 0 0 0.756863 0 0 0 0 1 0 0 0 0.4 0"/>
<feBlend mode="normal" in2="effect1_backgroundBlur_126_914" result="effect2_dropShadow_126_914"/>
<feBlend mode="normal" in="SourceGraphic" in2="effect2_dropShadow_126_914" result="shape"/>
</filter>
</defs>
</svg>
