<svg width="161" height="118" viewBox="0 0 161 118" fill="none" xmlns="http://www.w3.org/2000/svg">
<mask id="mask0_126_890" style="mask-type:alpha" maskUnits="userSpaceOnUse" x="0" y="0" width="161" height="118">
<path d="M159.828 5.52315C159.67 3.6874 158.597 2.35552 156.773 2.10005C138.697 -0.430629 38.7717 -0.994415 5.86373 2.2028C2.925 2.48831 0.764871 4.51552 0.56602 7.46138C-0.886498 28.9796 0.395888 112.545 5.11742 114.61C13.733 118.379 150.496 120.353 156.179 113.174C162.503 105.185 161.293 22.5835 159.828 5.52315Z" fill="url(#paint0_linear_126_890)" fill-opacity="0.96"/>
</mask>
<g mask="url(#mask0_126_890)">
<path d="M156.634 3.09039C147.68 1.83677 118.259 1.06114 86.8785 1.00346C55.5203 0.945826 22.3586 1.60493 5.96043 3.19811C3.46196 3.44085 1.72659 5.11625 1.56375 7.52873C0.840988 18.2361 0.796921 44.4659 1.52599 68.2999C1.89037 80.2121 2.44719 91.5011 3.20609 99.9331C3.58591 104.153 4.01414 107.632 4.48878 110.107C4.72696 111.349 4.97006 112.302 5.21095 112.958C5.33182 113.287 5.43991 113.507 5.52628 113.642C5.55026 113.679 5.56906 113.704 5.58202 113.72C6.01068 113.89 6.90475 114.094 8.3185 114.305C9.76665 114.52 11.658 114.729 13.9361 114.929C18.4902 115.327 24.5448 115.685 31.599 115.986C45.7049 116.588 63.7717 116.964 81.7499 116.998C99.7301 117.031 117.606 116.723 131.334 115.959C138.202 115.577 144.009 115.081 148.266 114.462C150.397 114.152 152.111 113.815 153.364 113.454C153.991 113.273 154.478 113.094 154.833 112.921C155.206 112.74 155.354 112.605 155.395 112.554C155.678 112.196 156 111.542 156.326 110.529C156.647 109.536 156.948 108.276 157.228 106.772C157.789 103.763 158.251 99.8527 158.626 95.3004C159.377 86.2001 159.772 74.6192 159.925 62.7377C160.229 38.9659 159.56 14.0893 158.831 5.60875C158.767 4.86115 158.523 4.28106 158.17 3.87451C157.824 3.47586 157.325 3.18716 156.634 3.09039Z" fill="url(#paint1_radial_126_890)" fill-opacity="0.96" stroke="#9062C3" stroke-width="2"/>
</g>
<defs>
<linearGradient id="paint0_linear_126_890" x1="80.5553" y1="114.388" x2="80.5553" y2="-2.23285e-09" gradientUnits="userSpaceOnUse">
<stop stop-color="#9062C3" stop-opacity="0"/>
<stop offset="1" stop-color="#9062C3"/>
</linearGradient>
<radialGradient id="paint1_radial_126_890" cx="0" cy="0" r="1" gradientUnits="userSpaceOnUse" gradientTransform="translate(80.5553 161.949) rotate(-90) scale(161.949 402.259)">
<stop stop-color="#9062C3" stop-opacity="0"/>
<stop offset="1" stop-color="#9062C3"/>
</radialGradient>
</defs>
</svg>
