<svg width="73" height="78" viewBox="0 0 73 78" fill="none" xmlns="http://www.w3.org/2000/svg">
<g filter="url(#filter0_b_261_1444)">
<path d="M12.0661 1.2L6.37551 0.32932C5.21752 0.152143 4.15586 1.0037 4.07751 2.17254L3.63255 8.81026C3.62409 8.93647 3.60368 9.06159 3.57159 9.18394L0.263901 21.7939C0.0984833 22.4245 0.250826 23.0962 0.672128 23.5938L8.98916 33.4161C9.40578 33.9082 9.55967 34.5709 9.40249 35.1961L8.50663 38.7599C8.46655 38.9194 8.44628 39.0831 8.44628 39.2475V46.1034C8.44628 46.5545 8.5988 46.9924 8.87906 47.3459L32.3818 76.9909C32.869 77.6054 33.6705 77.8785 34.4316 77.6893L41.7697 75.8648C42.4331 75.6999 42.9662 75.2076 43.1835 74.5595L43.6507 73.1655C43.8903 72.4506 44.5116 71.9312 45.2576 71.8221L63.2771 69.1867C64.0544 69.073 64.6931 68.5149 64.91 67.76L65.4317 65.9438C65.6342 65.239 66.2063 64.7014 66.9224 64.5432L69.9178 63.8812C70.6912 63.7103 71.2908 63.0991 71.447 62.3226L72.8189 55.5004C72.9339 54.9288 72.7937 54.3356 72.4351 53.8759L46.4518 20.5698C46.0728 20.084 45.491 19.8 44.8749 19.8H40.0807C39.5283 19.8 39.0004 19.5715 38.6224 19.1686L22.8679 2.38138C22.5176 2.00808 22.0374 1.78333 21.5264 1.75344L12.0661 1.2Z" fill="#D5C1FF" fill-opacity="0.48"/>
<path d="M11.9149 2.1885L11.9611 2.19556L12.0077 2.19829L21.468 2.75173C21.7235 2.76668 21.9636 2.87905 22.1387 3.0657L37.8932 19.853C38.4603 20.4572 39.252 20.8 40.0807 20.8H44.8749C45.183 20.8 45.4738 20.942 45.6633 21.1849L71.6466 54.491L72.4351 53.8759L71.6466 54.491C71.8259 54.7208 71.896 55.0174 71.8386 55.3032L70.4666 62.1255C70.3885 62.5137 70.0887 62.8193 69.702 62.9047L66.7066 63.5667C65.6324 63.8041 64.7743 64.6104 64.4706 65.6677L63.9488 67.4839C63.8404 67.8614 63.521 68.1404 63.1324 68.1972L45.1129 70.8326C43.9938 70.9963 43.0619 71.7754 42.7025 72.8477L42.2353 74.2417C42.1267 74.5657 41.8601 74.8119 41.5284 74.8943L34.1903 76.7188C33.8097 76.8134 33.409 76.6769 33.1654 76.3696L9.66267 46.7246C9.52254 46.5479 9.44628 46.3289 9.44628 46.1034V39.2475C9.44628 39.1653 9.45642 39.0835 9.47645 39.0037L10.3723 35.4399C10.6081 34.502 10.3773 33.508 9.75233 32.7699L8.98916 33.4161L9.75232 32.7699L1.43529 22.9476C1.22464 22.6988 1.14847 22.363 1.23118 22.0476L4.53886 9.43766C4.587 9.25414 4.61762 9.06646 4.63031 8.87715L5.07527 2.23943C5.11444 1.655 5.64527 1.22923 6.22427 1.31782L11.9149 2.1885Z" stroke="#D5C1FF" stroke-opacity="0.48" stroke-width="2" stroke-linecap="round"/>
</g>
<defs>
<filter id="filter0_b_261_1444" x="-7.80078" y="-7.69385" width="88.6582" height="93.4424" filterUnits="userSpaceOnUse" color-interpolation-filters="sRGB">
<feFlood flood-opacity="0" result="BackgroundImageFix"/>
<feGaussianBlur in="BackgroundImage" stdDeviation="4"/>
<feComposite in2="SourceAlpha" operator="in" result="effect1_backgroundBlur_261_1444"/>
<feBlend mode="normal" in="SourceGraphic" in2="effect1_backgroundBlur_261_1444" result="shape"/>
</filter>
</defs>
</svg>
