<svg width="125" height="125" viewBox="0 0 125 125" fill="none" xmlns="http://www.w3.org/2000/svg">
<g filter="url(#filter0_bd_126_864)">
<path d="M89.8627 42.7304C84.1901 34.4304 74.8879 31.018 68.9382 29.9965C67.5157 29.7522 66.6082 28.1665 66.7721 26.7324C67.201 22.9811 64.9184 20 62.7786 20C59.7177 20 58.6468 23.5492 58.8262 26.521C58.9163 28.0136 57.887 29.8212 56.4214 30.118C47.0102 32.0241 40.091 38.3071 37.1587 42.0636C36.788 42.5386 36.2383 42.8376 35.6462 42.9493C30.1674 43.9827 27.3463 50.3654 26.4671 54.058C26.3768 54.437 26.19 54.7824 25.9489 55.0884C25.1314 56.126 24 58.1457 24 60.5442C24 62.9622 25.1497 64.9951 25.9687 66.025C26.1988 66.3144 26.3829 66.6451 26.4728 67.0038C28.3116 74.3396 32.3173 77.1033 35.0533 77.8256C35.9395 78.0596 36.8555 78.6253 37.445 79.3273C38.0115 80.0019 38.7844 80.8 39.5479 81.5471C40.5014 82.48 40.3534 84.0757 39.3382 84.941C34.7115 88.8847 34.2763 93.7065 38.4863 93.7065C41.8266 93.7065 46.3684 91.1769 48.956 89.4241C49.5833 88.9992 50.3884 88.9317 51.0855 89.2286C55.6458 91.1707 61.1918 91.6093 65.2308 91.4089C66.8198 91.3301 68.0548 93.0301 68.3317 94.5967C68.6342 96.3081 69.9833 96.9252 70.9132 97C75.1164 97 82.2704 89.1135 84.2939 84.4706C84.4441 84.126 84.6673 83.8198 84.9568 83.5801C87.068 81.8325 88.9713 79.4642 89.9493 78.0914C90.1847 77.7609 90.5073 77.5042 90.8732 77.3289C95.1029 75.3014 97.306 70.4086 98.0508 67.596C98.1689 67.1501 98.4163 66.7512 98.7282 66.4114C99.697 65.3556 101 63.2464 101 60.4307C101 57.6326 99.7133 55.6371 98.7464 54.6537C98.4239 54.3256 98.1536 53.9404 98.0262 53.4984C96.2504 47.3419 93.0102 44.5551 91.0489 43.6637C90.5839 43.4523 90.1508 43.152 89.8627 42.7304Z" fill="#D5C1FF" fill-opacity="0.48" shape-rendering="crispEdges"/>
<path d="M68.769 30.9821C74.5767 31.9793 83.5764 35.3047 89.037 43.2946C89.4625 43.9172 90.0694 44.3169 90.6351 44.574C92.289 45.3258 95.3571 47.8533 97.0653 53.7755L98.0262 53.4984L97.0653 53.7755C97.2537 54.4286 97.6386 54.9534 98.0333 55.3548C98.8575 56.193 100 57.9483 100 60.4307C100 62.9356 98.8368 64.814 97.9914 65.7352C97.5972 66.1647 97.2529 66.7027 97.0841 67.3401C96.7341 68.6619 96.0352 70.4893 94.9271 72.217C93.8176 73.9468 92.3356 75.5189 90.4409 76.4271C89.9403 76.6671 89.4793 77.0277 89.1349 77.5111C88.1823 78.8483 86.3368 81.1396 84.3192 82.8098C83.9008 83.1561 83.5857 83.5926 83.3772 84.071C82.4322 86.2393 80.2278 89.2698 77.7159 91.7672C76.4669 93.0089 75.1732 94.0872 73.9609 94.8482C72.7461 95.6108 71.7202 95.9866 70.9543 95.9996C70.3354 95.9363 69.5126 95.5324 69.3164 94.4227C69.1476 93.4675 68.6926 92.4788 68.0214 91.7221C67.3497 90.9649 66.3721 90.351 65.1813 90.4101C61.2271 90.6063 55.848 90.1699 51.4774 88.3086C50.4775 87.8828 49.3126 87.9748 48.3952 88.5962C47.1355 89.4495 45.4029 90.4894 43.5902 91.312C41.7548 92.1448 39.941 92.7065 38.4863 92.7065C37.6181 92.7065 37.1586 92.461 36.9241 92.2095C36.691 91.9596 36.5326 91.5455 36.594 90.8969C36.721 89.5565 37.78 87.5832 39.9869 85.7021C41.3926 84.504 41.6727 82.227 40.2473 80.8324C39.4919 80.0932 38.7461 79.3216 38.2108 78.6842C37.4828 77.8172 36.3853 77.1431 35.3086 76.8588C32.9713 76.2417 29.2054 73.7922 27.4428 66.7606C27.3103 66.2323 27.0476 65.7752 26.7514 65.4026C26.0185 64.4808 25 62.6616 25 60.5442C25 58.4442 26.0018 56.6371 26.7344 55.7073C27.0449 55.3133 27.3092 54.8387 27.4399 54.2897C27.8582 52.5325 28.7416 50.1344 30.1564 48.0722C31.5731 46.0072 33.4481 44.3815 35.8316 43.932C36.6254 43.7823 37.4048 43.3735 37.947 42.6789C40.7834 39.0452 47.5125 32.9427 56.6199 31.0981C57.6976 30.8799 58.5253 30.1318 59.0512 29.3043C59.5793 28.4732 59.8836 27.442 59.8244 26.4608C59.7418 25.0926 59.9547 23.6499 60.4822 22.5924C60.9916 21.5712 61.7289 21 62.7786 21C63.3859 21 64.2197 21.4513 64.8987 22.5021C65.556 23.5195 65.9671 24.9702 65.7786 26.6189C65.6694 27.574 65.9153 28.5565 66.4156 29.346C66.918 30.1387 67.7233 30.8025 68.769 30.9821Z" stroke="#D5C1FF" stroke-opacity="0.48" stroke-width="2" stroke-linecap="round" shape-rendering="crispEdges"/>
</g>
<defs>
<filter id="filter0_bd_126_864" x="0" y="0" width="125" height="125" filterUnits="userSpaceOnUse" color-interpolation-filters="sRGB">
<feFlood flood-opacity="0" result="BackgroundImageFix"/>
<feGaussianBlur in="BackgroundImage" stdDeviation="4"/>
<feComposite in2="SourceAlpha" operator="in" result="effect1_backgroundBlur_126_864"/>
<feColorMatrix in="SourceAlpha" type="matrix" values="0 0 0 0 0 0 0 0 0 0 0 0 0 0 0 0 0 0 127 0" result="hardAlpha"/>
<feOffset dy="4"/>
<feGaussianBlur stdDeviation="12"/>
<feComposite in2="hardAlpha" operator="out"/>
<feColorMatrix type="matrix" values="0 0 0 0 0.835294 0 0 0 0 0.756863 0 0 0 0 1 0 0 0 0.4 0"/>
<feBlend mode="normal" in2="effect1_backgroundBlur_126_864" result="effect2_dropShadow_126_864"/>
<feBlend mode="normal" in="SourceGraphic" in2="effect2_dropShadow_126_864" result="shape"/>
</filter>
</defs>
</svg>
