<svg width="110" height="53" viewBox="0 0 110 53" fill="none" xmlns="http://www.w3.org/2000/svg">
<g filter="url(#filter0_b_261_1444)">
<path d="M90.5337 0C85.7202 0 82.5278 1.96488 81.0266 3.43033C80.5575 3.88814 79.9483 4.21145 79.293 4.20397L28.4934 3.6242C27.9064 3.6175 27.3586 3.34629 26.9294 2.94575C25.5828 1.68907 22.9858 0 19.7722 0C13.1976 0 10.1269 3.35165 9.18829 5.46161C9.029 5.81967 8.8144 6.15178 8.53375 6.4253C6.13955 8.75875 4.18547 13.3076 3.26021 16.0074C3.08651 16.5142 2.61555 16.8636 2.0798 16.8636C1.54601 16.8636 1.0712 17.2103 0.932444 17.7257C-0.993842 24.8812 0.482106 32.7198 1.62471 36.2704C1.71599 36.554 1.98142 36.7386 2.27939 36.7386C2.66708 36.7386 2.97857 37.0536 3.01902 37.4392C3.38699 40.9466 6.36484 44.8632 8.11198 46.703C8.28691 46.8872 8.42757 47.0987 8.53632 47.3282C10.4147 51.2937 14.5105 53 19.1725 53C23.1904 53 26.0866 51.3102 27.5088 50.0535C27.9548 49.6594 28.5119 49.3864 29.107 49.3864H79.5693C80.0648 49.3864 80.5397 49.5748 80.9225 49.8896C86.7599 54.69 93.068 52.9416 97.1301 51.1932C98.9644 50.4036 99.8087 49.4584 100.132 48.6322C100.49 47.7184 100.73 46.5663 101.399 45.8484C103.228 43.8853 104.4 41.0496 105.034 38.8499C105.358 37.7268 106.552 37.1065 107.673 36.7769C108.045 36.6675 108.358 36.4689 108.524 36.1364C111.522 29.5114 109.124 18.6705 108.524 17.4659C108.376 17.1685 108.11 16.9782 107.789 16.8631C106.648 16.4535 105.404 15.7849 105.053 14.6243C104.021 11.2028 101.723 7.90084 100.355 6.28498C100.206 6.10876 100.088 5.91338 99.9902 5.70424C99.0153 3.62014 96 0 90.5337 0Z" fill="#D5C1FF" fill-opacity="0.48"/>
<path d="M81.7251 4.14592C83.0554 2.84738 86.0026 1 90.5337 1C95.4999 1 98.2206 4.28133 99.0844 6.12796C99.2118 6.40017 99.3747 6.67439 99.592 6.93111C100.914 8.49218 103.118 11.6734 104.096 14.9132C104.354 15.7672 104.926 16.3883 105.535 16.8328C106.141 17.2754 106.836 17.5836 107.451 17.8043C107.531 17.833 107.577 17.8614 107.6 17.8799C107.62 17.8958 107.626 17.9053 107.629 17.9116L108.524 17.4659L107.629 17.9116C107.656 17.967 107.738 18.1843 107.855 18.6081C107.965 19.0067 108.091 19.5322 108.219 20.1591C108.474 21.4127 108.73 23.0482 108.876 24.8495C109.172 28.4801 109.006 32.6242 107.625 35.6975C107.62 35.7043 107.611 35.7147 107.591 35.7292C107.558 35.7531 107.496 35.7867 107.391 35.8174C106.77 36.0001 106.079 36.2764 105.48 36.6977C104.876 37.1222 104.317 37.7295 104.074 38.5727C103.456 40.7116 102.34 43.3718 100.667 45.1667C100.2 45.6681 99.9174 46.2803 99.7148 46.8093C99.6153 47.0691 99.5269 47.3323 99.4472 47.5694L99.4389 47.5941C99.3544 47.8455 99.2799 48.0657 99.2009 48.2677C99.0055 48.7668 98.4133 49.5522 96.7347 50.2747C92.7568 51.9869 86.9385 53.5422 81.5576 49.1172C81.0156 48.6714 80.3208 48.3864 79.5693 48.3864H29.107C28.2021 48.3864 27.4191 48.7983 26.8467 49.3041C25.5743 50.4284 22.9059 52 19.1725 52C14.7271 52 11.091 50.3853 9.44006 46.9002C9.29009 46.5836 9.09138 46.2822 8.83712 46.0144C8.00453 45.1377 6.86823 43.7536 5.90113 42.1742C4.92515 40.5804 4.17502 38.8738 4.01357 37.3349C3.93354 36.5721 3.34908 35.8646 2.51018 35.7537C1.41079 32.2106 0.0775808 24.7481 1.89807 17.9857C1.91342 17.9286 1.97522 17.8636 2.0798 17.8636C3.05969 17.8636 3.89948 17.2265 4.20619 16.3316C4.65661 15.0174 5.35871 13.2504 6.23643 11.5344C7.12168 9.80358 8.14989 8.19581 9.23171 7.14144C9.6196 6.7634 9.90123 6.31928 10.102 5.86807C10.8781 4.12333 13.5879 1 19.7722 1C22.6434 1 25.0082 2.52063 26.2471 3.67685C26.8129 4.20489 27.5895 4.61395 28.482 4.62413L79.2816 5.2039C80.2784 5.21528 81.1293 4.72752 81.7251 4.14592Z" stroke="#D5C1FF" stroke-opacity="0.48" stroke-width="2" stroke-linecap="round"/>
</g>
<defs>
<filter id="filter0_b_261_1444" x="-8" y="-8" width="126" height="69" filterUnits="userSpaceOnUse" color-interpolation-filters="sRGB">
<feFlood flood-opacity="0" result="BackgroundImageFix"/>
<feGaussianBlur in="BackgroundImage" stdDeviation="4"/>
<feComposite in2="SourceAlpha" operator="in" result="effect1_backgroundBlur_261_1444"/>
<feBlend mode="normal" in="SourceGraphic" in2="effect1_backgroundBlur_261_1444" result="shape"/>
</filter>
</defs>
</svg>
