<svg width="245" height="134" viewBox="0 0 245 134" fill="none" xmlns="http://www.w3.org/2000/svg">
<mask id="mask0_126_854" style="mask-type:alpha" maskUnits="userSpaceOnUse" x="0" y="0" width="245" height="134">
<path d="M243.196 6.10398C242.964 4.13491 241.691 2.76011 239.724 2.51604C215.208 -0.524911 53.844 -1.20997 6.16867 2.71406C3.42265 2.94008 1.24988 4.68703 0.963015 7.42737C-1.40605 30.058 0.495296 127.77 7.78739 130.15C20.898 134.43 229.016 136.672 237.664 128.52C247.315 119.421 245.436 25.0963 243.196 6.10398Z" fill="url(#paint0_linear_126_854)" fill-opacity="0.96"/>
</mask>
<g mask="url(#mask0_126_854)">
<path d="M239.6 3.50844C227.419 1.9974 181.025 1.0641 131.63 1.00318C82.2583 0.942292 30.04 1.75265 6.2507 3.71069C3.88554 3.90536 2.18478 5.36115 1.95758 7.53148C0.781281 18.7682 0.660828 48.7901 1.75148 76.3431C2.29645 90.1103 3.14246 103.225 4.30464 113.035C4.88634 117.946 5.54355 121.996 6.27278 124.876C6.6385 126.321 7.01187 127.429 7.38248 128.191C7.56758 128.572 7.73688 128.836 7.881 129.005C8.02837 129.178 8.10597 129.202 8.09772 129.2C8.80511 129.431 10.287 129.682 12.545 129.933C14.7703 130.18 17.6655 130.419 21.1396 130.646C28.0861 131.1 37.3125 131.506 48.0524 131.848C69.5303 132.532 97.0341 132.959 124.401 132.997C151.769 133.035 178.988 132.685 199.899 131.817C210.358 131.382 219.222 130.819 225.733 130.112C228.991 129.758 231.637 129.371 233.591 128.951C234.568 128.741 235.351 128.527 235.94 128.314C236.555 128.091 236.861 127.902 236.978 127.792C237.437 127.359 237.93 126.6 238.423 125.458C238.91 124.33 239.368 122.898 239.794 121.185C240.646 117.76 241.35 113.305 241.921 108.115C243.062 97.7409 243.661 84.539 243.889 71.0052C244.346 43.9248 243.315 15.6492 242.203 6.22107C242.021 4.67642 241.079 3.69185 239.6 3.50844Z" fill="url(#paint1_radial_126_854)" fill-opacity="0.96" stroke="#9062C3" stroke-width="2"/>
</g>
<defs>
<linearGradient id="paint0_linear_126_854" x1="122.584" y1="127.596" x2="122.584" y2="-2.53598e-09" gradientUnits="userSpaceOnUse">
<stop stop-color="#9062C3" stop-opacity="0"/>
<stop offset="1" stop-color="#9062C3"/>
</linearGradient>
<radialGradient id="paint1_radial_126_854" cx="0" cy="0" r="1" gradientUnits="userSpaceOnUse" gradientTransform="translate(122.584 183.908) rotate(-90) scale(183.908 612.134)">
<stop stop-color="#9062C3" stop-opacity="0"/>
<stop offset="1" stop-color="#9062C3"/>
</radialGradient>
</defs>
</svg>
