<svg width="1343" height="394" viewBox="0 0 1343 394" fill="none" xmlns="http://www.w3.org/2000/svg">
<g filter="url(#filter0_i_252_1427)">
<path d="M9.56286e-08 37.1834C7.49612e-07 25.7872 7.42857 16.1691 18.7606 14.9615C193.974 -3.71098 1183.36 -7.91173 1316.02 19.9158C1323.41 21.4651 1328.24 27.4891 1329.62 34.9092C1345.33 119.575 1343.03 248.309 1342.68 358.665C1342.64 371.073 1333.55 381.412 1321.18 382.393C977.95 409.604 172.352 383.029 18.4121 363.255C7.27885 361.825 0.000354146 352.303 0.00033901 341.078C0.000205029 241.719 -5.1304e-06 128.251 9.56286e-08 37.1834Z" fill="white"/>
</g>
<defs>
<filter id="filter0_i_252_1427" x="0" y="-4" width="1343" height="398" filterUnits="userSpaceOnUse" color-interpolation-filters="sRGB">
<feFlood flood-opacity="0" result="BackgroundImageFix"/>
<feBlend mode="normal" in="SourceGraphic" in2="BackgroundImageFix" result="shape"/>
<feColorMatrix in="SourceAlpha" type="matrix" values="0 0 0 0 0 0 0 0 0 0 0 0 0 0 0 0 0 0 127 0" result="hardAlpha"/>
<feOffset dy="-4"/>
<feGaussianBlur stdDeviation="4"/>
<feComposite in2="hardAlpha" operator="arithmetic" k2="-1" k3="1"/>
<feColorMatrix type="matrix" values="0 0 0 0 0.909804 0 0 0 0 0.313726 0 0 0 0 0.470588 0 0 0 0.48 0"/>
<feBlend mode="normal" in2="shape" result="effect1_innerShadow_252_1427"/>
</filter>
</defs>
</svg>
