<svg width="363" height="164" viewBox="0 0 363 164" fill="none" xmlns="http://www.w3.org/2000/svg">
<g filter="url(#filter0_d_97_137)">
<g filter="url(#filter1_i_97_137)">
<path fill-rule="evenodd" clip-rule="evenodd" d="M58.3832 28C54.4912 28 51.1639 30.8011 50.5004 34.6361L40.1192 94.6361C39.273 99.527 43.0386 104 48.0021 104H53C53.5523 104 54 104.448 54 105V110.586C54 111.477 55.0771 111.923 55.7071 111.293L62.7071 104.293C62.8946 104.105 63.149 104 63.4142 104H304.615C308.507 104 311.834 101.199 312.498 97.3639L322.879 37.3639C323.725 32.473 319.96 28 314.996 28H58.3832Z" fill="#FFF0CB"/>
</g>
</g>
<defs>
<filter id="filter0_d_97_137" x="0" y="0" width="362.998" height="163.588" filterUnits="userSpaceOnUse" color-interpolation-filters="sRGB">
<feFlood flood-opacity="0" result="BackgroundImageFix"/>
<feColorMatrix in="SourceAlpha" type="matrix" values="0 0 0 0 0 0 0 0 0 0 0 0 0 0 0 0 0 0 127 0" result="hardAlpha"/>
<feOffset dy="12"/>
<feGaussianBlur stdDeviation="20"/>
<feComposite in2="hardAlpha" operator="out"/>
<feColorMatrix type="matrix" values="0 0 0 0 1 0 0 0 0 0.8 0 0 0 0 0.333333 0 0 0 1 0"/>
<feBlend mode="normal" in2="BackgroundImageFix" result="effect1_dropShadow_97_137"/>
<feBlend mode="normal" in="SourceGraphic" in2="effect1_dropShadow_97_137" result="shape"/>
</filter>
<filter id="filter1_i_97_137" x="40" y="24" width="282.998" height="87.5879" filterUnits="userSpaceOnUse" color-interpolation-filters="sRGB">
<feFlood flood-opacity="0" result="BackgroundImageFix"/>
<feBlend mode="normal" in="SourceGraphic" in2="BackgroundImageFix" result="shape"/>
<feColorMatrix in="SourceAlpha" type="matrix" values="0 0 0 0 0 0 0 0 0 0 0 0 0 0 0 0 0 0 127 0" result="hardAlpha"/>
<feOffset dy="-4"/>
<feGaussianBlur stdDeviation="4"/>
<feComposite in2="hardAlpha" operator="arithmetic" k2="-1" k3="1"/>
<feColorMatrix type="matrix" values="0 0 0 0 0.883659 0 0 0 0 0.635314 0 0 0 0 0.0558422 0 0 0 0.4 0"/>
<feBlend mode="normal" in2="shape" result="effect1_innerShadow_97_137"/>
</filter>
</defs>
</svg>
