<svg width="287" height="184" viewBox="0 0 287 184" fill="none" xmlns="http://www.w3.org/2000/svg">
<g filter="url(#filter0_di_505_332)">
<path fill-rule="evenodd" clip-rule="evenodd" d="M43.5347 101.604C31.7026 59.2841 52.1364 36.7401 67.1368 30.5256C78.3337 25.8868 88.2622 28.4747 100.325 31.6188C110.605 34.2985 122.436 37.3822 137.923 36.7403C148.502 36.3019 158.005 35.222 166.701 34.2338C185.718 32.0727 200.871 30.3508 214.952 36.7408C224.424 41.039 247.512 67.626 237.559 98.1254C236.761 100.573 236.872 103.334 238.56 105.278C240.649 107.683 243.081 109.616 245.911 111.864C246.345 112.209 246.203 112.889 245.656 112.984C242.718 113.498 239.604 113.012 236.641 112.008C233.948 111.096 230.871 111.894 229.199 114.193C228.793 114.751 228.374 115.309 227.943 115.867C217.071 129.912 198.583 128.184 179.197 126.371C168.625 125.383 157.786 124.369 147.77 125.875C144.896 126.308 141.914 126.781 138.855 127.266C102.267 133.071 54.4536 140.658 43.5347 101.604Z" fill="white"/>
</g>
<defs>
<filter id="filter0_di_505_332" x="0" y="0" width="286.164" height="184" filterUnits="userSpaceOnUse" color-interpolation-filters="sRGB">
<feFlood flood-opacity="0" result="BackgroundImageFix"/>
<feColorMatrix in="SourceAlpha" type="matrix" values="0 0 0 0 0 0 0 0 0 0 0 0 0 0 0 0 0 0 127 0" result="hardAlpha"/>
<feOffset dy="12"/>
<feGaussianBlur stdDeviation="20"/>
<feComposite in2="hardAlpha" operator="out"/>
<feColorMatrix type="matrix" values="0 0 0 0 0.909804 0 0 0 0 0.313726 0 0 0 0 0.470588 0 0 0 1 0"/>
<feBlend mode="normal" in2="BackgroundImageFix" result="effect1_dropShadow_505_332"/>
<feBlend mode="normal" in="SourceGraphic" in2="effect1_dropShadow_505_332" result="shape"/>
<feColorMatrix in="SourceAlpha" type="matrix" values="0 0 0 0 0 0 0 0 0 0 0 0 0 0 0 0 0 0 127 0" result="hardAlpha"/>
<feOffset dy="-4"/>
<feGaussianBlur stdDeviation="4"/>
<feComposite in2="hardAlpha" operator="arithmetic" k2="-1" k3="1"/>
<feColorMatrix type="matrix" values="0 0 0 0 0.909804 0 0 0 0 0.313726 0 0 0 0 0.470588 0 0 0 0.16 0"/>
<feBlend mode="normal" in2="shape" result="effect2_innerShadow_505_332"/>
</filter>
</defs>
</svg>
