<svg width="277" height="131" viewBox="0 0 277 131" fill="none" xmlns="http://www.w3.org/2000/svg">
<g filter="url(#filter0_i_158_3144)">
<path fill-rule="evenodd" clip-rule="evenodd" d="M168.497 5.34431C162.19 4.60281 155.884 3.86136 149.663 3.05262C71.4094 -7.12063 0.00161827 6.35694 1.22624e-08 70.5844C-0.00101123 110.721 62.5432 124.836 67.6201 125.916C67.863 125.967 68.0615 126.018 68.3011 126.083C71.7494 127.018 100.525 134.134 161.436 129.375C165.974 129.02 170.694 128.718 175.521 128.408C190.506 127.447 206.522 126.42 221.299 123.573C223.34 123.179 225.445 123.57 227.277 124.552C232.651 127.434 239.681 129.904 246.012 128.912C246.586 128.821 246.726 128.098 246.249 127.766V127.766C246.129 127.683 246.01 127.6 245.891 127.517C241.155 124.223 242.641 117.798 247.829 115.276C265.13 106.868 277 92.5368 277 67.3062C277 18.1004 222.734 11.7206 168.497 5.34431Z" fill="white"/>
</g>
<defs>
<filter id="filter0_i_158_3144" x="0" y="-4" width="277" height="135" filterUnits="userSpaceOnUse" color-interpolation-filters="sRGB">
<feFlood flood-opacity="0" result="BackgroundImageFix"/>
<feBlend mode="normal" in="SourceGraphic" in2="BackgroundImageFix" result="shape"/>
<feColorMatrix in="SourceAlpha" type="matrix" values="0 0 0 0 0 0 0 0 0 0 0 0 0 0 0 0 0 0 127 0" result="hardAlpha"/>
<feOffset dy="-4"/>
<feGaussianBlur stdDeviation="4"/>
<feComposite in2="hardAlpha" operator="arithmetic" k2="-1" k3="1"/>
<feColorMatrix type="matrix" values="0 0 0 0 0.909804 0 0 0 0 0.313726 0 0 0 0 0.470588 0 0 0 0.16 0"/>
<feBlend mode="normal" in2="shape" result="effect1_innerShadow_158_3144"/>
</filter>
</defs>
</svg>
