<svg width="247" height="144" viewBox="0 0 247 144" fill="none" xmlns="http://www.w3.org/2000/svg">
<g filter="url(#filter0_i_345_810)">
<path fill-rule="evenodd" clip-rule="evenodd" d="M225.205 119.516C222.215 117.664 218.402 117.45 215.373 119.239C187.148 135.908 145.056 144.136 110.863 143.669C61.5299 142.994 18.4827 130.867 4.59909 94.78C-8.05353 61.8926 4.64737 28.4501 52.0912 9.67712C98.1443 -8.54552 154.946 1.62666 186.85 18.278L187.025 18.3691C223.304 37.3042 255.386 54.0487 245.028 86.6317C243.058 92.8286 239.584 98.5284 234.925 103.727C232.635 106.283 231.762 110.001 233.706 112.829C236.613 117.058 240.17 119.884 244.518 123.339V123.339C245.034 123.748 244.865 124.555 244.216 124.669C237.776 125.796 230.626 122.874 225.205 119.516Z" fill="white"/>
</g>
<defs>
<filter id="filter0_i_345_810" x="0" y="-4" width="247" height="147.688" filterUnits="userSpaceOnUse" color-interpolation-filters="sRGB">
<feFlood flood-opacity="0" result="BackgroundImageFix"/>
<feBlend mode="normal" in="SourceGraphic" in2="BackgroundImageFix" result="shape"/>
<feColorMatrix in="SourceAlpha" type="matrix" values="0 0 0 0 0 0 0 0 0 0 0 0 0 0 0 0 0 0 127 0" result="hardAlpha"/>
<feOffset dy="-4"/>
<feGaussianBlur stdDeviation="4"/>
<feComposite in2="hardAlpha" operator="arithmetic" k2="-1" k3="1"/>
<feColorMatrix type="matrix" values="0 0 0 0 0.909804 0 0 0 0 0.313726 0 0 0 0 0.470588 0 0 0 0.16 0"/>
<feBlend mode="normal" in2="shape" result="effect1_innerShadow_345_810"/>
</filter>
</defs>
</svg>