<svg width="15" height="12" viewBox="0 0 15 12" fill="none" xmlns="http://www.w3.org/2000/svg">
<path d="M6.35355 10.6464C6.54882 10.8417 6.54882 11.1583 6.35355 11.3536C6.15829 11.5488 5.84171 11.5488 5.64645 11.3536L6.35355 10.6464ZM1 6L0.646446 6.35355C0.451184 6.15829 0.451184 5.84171 0.646446 5.64645L1 6ZM5.64644 0.646447C5.84171 0.451185 6.15829 0.451185 6.35355 0.646447C6.54881 0.841709 6.54881 1.15829 6.35355 1.35355L5.64644 0.646447ZM11 5.5C11.2761 5.5 11.5 5.72386 11.5 6C11.5 6.27614 11.2761 6.5 11 6.5L11 5.5ZM5.64645 11.3536L0.646446 6.35355L1.35355 5.64645L6.35355 10.6464L5.64645 11.3536ZM0.646446 5.64645L5.64644 0.646447L6.35355 1.35355L1.35355 6.35355L0.646446 5.64645ZM1 5.5C2.25 5.5 4.75 5.5 6.9375 5.5C8.03125 5.5 9.04687 5.5 9.78906 5.5C10.1602 5.5 10.4629 5.5 10.6729 5.5C10.7778 5.5 10.8596 5.5 10.9152 5.5C10.9429 5.5 10.9641 5.5 10.9784 5.5C10.9857 5.5 10.9908 5.5 10.9946 5.5C10.9962 5.5 10.9979 5.5 10.9986 5.5C10.9994 5.5 10.9991 5.5 10.9997 5.5C10.9998 5.5 10.9999 5.5 10.9999 5.5C11 5.5 11 5.5 11 6C11 6.5 11 6.5 10.9999 6.5C10.9999 6.5 10.9998 6.5 10.9997 6.5C10.9995 6.5 10.999 6.5 10.9986 6.5C10.9976 6.5 10.9965 6.5 10.9946 6.5C10.9909 6.5 10.9855 6.5 10.9784 6.5C10.9641 6.5 10.943 6.5 10.9152 6.5C10.8596 6.5 10.7778 6.5 10.6729 6.5C10.4629 6.5 10.1602 6.5 9.78906 6.5C9.04687 6.5 8.03125 6.5 6.9375 6.5C4.75 6.5 2.25 6.5 1 6.5L1 5.5Z" fill="white"/>
<circle r="1" transform="matrix(1 -8.74228e-08 -8.74228e-08 -1 14 6)" fill="white"/>
</svg>
